<?xml version="1.0" encoding="UTF-8" standalone="no"?>
<svg width="13px" height="13px" viewBox="0 0 13 13" version="1.1" xmlns="http://www.w3.org/2000/svg" xmlns:xlink="http://www.w3.org/1999/xlink" xmlns:sketch="http://www.bohemiancoding.com/sketch/ns">
    <!-- Generator: Sketch 3.0.2 (7799) - http://www.bohemiancoding.com/sketch -->
    <title>Artboard</title>
    <description>Created with Sketch.</description>
    <defs></defs>
    <g id="Page-1" stroke="none" stroke-width="1" fill="none" fill-rule="evenodd" sketch:type="MSPage">
        <g id="Artboard" sketch:type="MSArtboardGroup" fill="#FFFFFF">
            <path d="M7.76516504,7.76516504 C8.46416873,7.06616136 8.46416873,5.93383864 7.76516504,5.23483496 C7.06616136,4.53583127 5.93383864,4.53583127 5.23483496,5.23483496 C4.53583127,5.93383864 4.53583127,7.06616136 5.23483496,7.76516504 C5.93383864,8.46416873 7.06616136,8.46416873 7.76516504,7.76516504 Z M3.20710678,3.91421356 C3.31259002,3.78635156 3.4164337,3.65826422 3.53734896,3.53734896 C3.65826422,3.4164337 3.78681779,3.31305624 3.91421356,3.20710678 L2.72534172,2.01823494 L3.4324485,1.31112816 L1.43933983,1.43933983 L1.31112816,3.4324485 L2.01823494,2.72534172 L3.20710678,3.91421356 Z M9.46265104,9.46265104 C9.34173578,9.5835663 9.21318221,9.68694376 9.08578644,9.79289322 L10.2746583,10.9817651 L9.5675515,11.6888718 L11.5606602,11.5606602 L11.6888718,9.5675515 L10.9817651,10.2746583 L9.79289322,9.08578644 C9.68694376,9.21318221 9.5835663,9.34173578 9.46265104,9.46265104 Z M10.2746583,2.01823494 L9.08578644,3.20710678 C9.21364844,3.31259002 9.34173578,3.4164337 9.46265104,3.53734896 C9.5835663,3.65826422 9.68694376,3.78681779 9.79289322,3.91421356 L10.9817651,2.72534172 L11.6888718,3.4324485 L11.5606602,1.43933983 L9.5675515,1.31112816 L10.2746583,2.01823494 Z M3.53734896,9.46265104 C3.4164337,9.34173578 3.31305624,9.21318221 3.20710678,9.08578644 L2.01823494,10.2746583 L1.31112816,9.5675515 L1.43933983,11.5606602 L3.4324485,11.6888718 L2.72534172,10.9817651 L3.91421356,9.79289322 C3.78681779,9.68694376 3.65826422,9.5835663 3.53734896,9.46265104 Z" id="Rectangle-1" sketch:type="MSShapeGroup"></path>
        </g>
    </g>
</svg>