<?xml version="1.0" encoding="utf-8"?>
<!-- Generator: Adobe Illustrator 17.0.0, SVG Export Plug-In . SVG Version: 6.00 Build 0)  -->
<!DOCTYPE svg PUBLIC "-//W3C//DTD SVG 1.1//EN" "http://www.w3.org/Graphics/SVG/1.1/DTD/svg11.dtd">
<svg version="1.1" id="Layer_1" xmlns="http://www.w3.org/2000/svg" xmlns:xlink="http://www.w3.org/1999/xlink" x="0px" y="0px"
	 width="75px" height="81px" viewBox="0 0 75 81" enable-background="new 0 0 75 81" xml:space="preserve">
<path fill="#FCEE18" d="M72.143,20.124c-2.814-2.814-26.074-19.8-34.235-19.8c-8.161,0-31.74,16.775-34.765,19.8
	c-3.025,3.025-3.144,36.856,0,40c3.144,3.144,27.536,20.55,34.852,20.55c7.317,0,31.556-17.959,34.148-20.55
	C74.734,57.533,74.957,22.938,72.143,20.124z M30.143,56.124c-1.244-1.245-1.255-28.745,0-30c1.255-1.256,23,13.451,23,15
	C53.143,42.673,31.387,57.369,30.143,56.124z"/>
</svg>
